PathFileType	4	(X/Y/Z)	Patient4_TMGait_0pt5_02_left_45.trc.trc
DataRate	CameraRate	NumFrames	NumMarkers	Units	OrigDataRate	OrigDataStartFrame	OrigNumFrames
76.086956521739	76.086956521739	4	33	mm	76.086956521739	89	       141
Frame#	Time	Sacral			L.Shoulder			Chest			R.Shoulder			Neck			R.ASIS			L.ASIS			R.Thigh.Superior			R.Thigh.Lateral			R.Thigh.Inferior			R.Patella			L.Thigh.Superior			L.Thigh.Lateral			L.Thigh.Inferior			L.Patella			L.Shank.Superior			L.Shank.Lateral			L.Shank.Inferior			R.Shank.Superior			R.Shank.Lateral			R.Shank.Inferior			R.Heel			R.Midfoot.Superior			R.Midfoot.Lateral			R.Toe			L.Heel			L.Midfoot.Lateral			L.Midfoot.Superior			L.Toe			L.Elbow			L.Wrist			R.Elbow			R.Wrist			
		X1	Y1	Z1	X2	Y2	Z2	X3	Y3	Z3	X4	Y4	Z4	X5	Y5	Z5	X6	Y6	Z6	X7	Y7	Z7	X8	Y8	Z8	X9	Y9	Z9	X10	Y10	Z10	X11	Y11	Z11	X12	Y12	Z12	X13	Y13	Z13	X14	Y14	Z14	X15	Y15	Z15	X16	Y16	Z16	X17	Y17	Z17	X18	Y18	Z18	X19	Y19	Z19	X20	Y20	Z20	X21	Y21	Z21	X22	Y22	Z22	X23	Y23	Z23	X24	Y24	Z24	X25	Y25	Z25	X26	Y26	Z26	X27	Y27	Z27	X28	Y28	Z28	X29	Y29	Z29	X30	Y30	Z30	X31	Y31	Z31	X32	Y32	Z32	X33	Y33	Z33	

89	59.176571428571	690.659514520554	1007.117655602285	480.875726463500	883.357282632704	1435.169516053897	309.785589872177	973.012831988412	1363.109747358152	477.559568710878	876.489896154462	1438.257232048873	645.561854257697	871.984543265686	1494.740754040187	460.819024461424	913.784783927137	939.255661980332	604.825053415049	908.099955358517	960.980477654772	331.153485725636	972.845938974923	748.650021657647	573.740359066835	900.090569572227	634.447247386954	632.200381828364	983.717496374675	588.427621689671	553.605456424875	993.434213556032	499.462785501244	560.909969730731	925.266317004783	735.308737183541	351.784701101962	822.184254751210	631.910205053377	287.774808159168	896.002731332136	539.446666042994	345.860571451236	882.344614058408	458.252794342942	345.948684640434	820.904628193715	400.924353500897	340.027094005819	687.966005637177	340.840097802099	289.881891064460	687.505075787601	213.801654456526	351.039651611801	970.485185275603	409.765462466503	567.122524802262	904.650439701522	301.704366888761	627.005128805569	954.059005170177	209.611697816236	565.022311615434	830.166373437541	42.971659701934	531.179873431053	999.771494144399	98.273945922805	571.525786212361	911.941579152369	36.852280388309	607.891646384445	1120.139374033258	45.355160682581	601.161810725368	506.201803973895	119.768441666685	389.995379440499	570.842056019088	84.990069624630	310.641070891473	671.087674387706	113.969703855481	331.213480103379	768.246320392270	33.291198137972	306.204905849911	911.456614204756	1092.611860726467	167.726723677487	1141.125302161629	974.308312385117	194.561583514275	768.253874549177	1110.016546416281	758.420737907070	850.360934457565	862.145288448526	758.375275068122	
90	59.189714285714	691.396550576778	1008.232474977301	484.443371707866	883.179462297203	1436.156535063453	312.407798766150	974.123707661164	1363.926711593162	479.427076872297	879.008671227486	1438.922520991062	648.105074018729	872.833764408095	1495.603995364892	463.616303097473	915.075881528530	939.880310276675	606.910978491730	908.500546010061	962.210462455484	333.249753718906	971.626711130548	747.539045849107	576.901844233030	896.755365305411	634.576510069332	634.473566858438	979.915751233110	587.571491287687	555.935811277861	988.267043650485	498.945145682623	562.686128952263	930.035375144375	737.668861850502	354.565351511977	831.398479253999	631.591635119545	289.634429558223	908.183379998184	540.765864759315	347.733704560166	895.498508781815	458.086859294356	346.880971884993	831.587921020324	401.107286869838	341.222182575577	696.309609792501	346.184048518586	291.398373619831	691.604013196289	219.124753892341	351.972345778607	965.159430609229	409.501852415297	568.727190015594	898.905672738406	301.532624145639	628.223887035515	948.021329182985	209.460692271672	565.892929617419	823.663541743523	42.976819492161	531.383251079916	993.309395592182	98.174637290809	571.877598656737	905.422215468365	36.800472837045	608.105706704879	1113.660573767823	45.081285440634	601.420531275910	506.736019326472	133.778945489470	390.797167244974	569.429079964281	95.762484770473	311.266591382580	671.217467102406	119.063658479316	331.752676066223	763.049158661276	32.643836071990	306.483285993327	907.896500489373	1092.223827229743	172.431009366992	1132.539404063097	963.105966299207	197.375906949231	774.377360626008	1110.268265990262	763.415265023942	869.396083500111	867.315961366892	762.153549272407	
91	59.202857142857	691.934123071481	1009.200514292455	487.988941867426	882.792093029314	1436.984396341315	314.912151563032	975.145620281720	1364.491280313416	481.071552364075	881.635478805146	1439.325992592233	650.545788017618	873.658709176414	1496.291274090673	466.333699749492	916.172086071447	940.392183513538	608.809663947068	908.567079056409	963.221930801417	335.079215558148	970.157025390034	746.406905497402	579.943734357910	893.229392349468	634.678333126663	636.650287694562	975.886645335803	586.710713942661	558.159480963781	982.866728798676	498.467858491918	564.368666001134	934.682374403282	740.236142775523	357.275076077170	840.765798338116	631.530972382138	291.348288282626	920.489595808643	542.556302218312	349.548682107974	908.978278880320	458.466966945434	347.902719796853	842.848700272301	401.677412079561	342.442383874719	705.466794620884	351.726794416957	292.959804813138	696.649975994183	224.807181963107	353.083954238273	959.636172360081	409.256940168332	570.250646060660	893.000057435620	301.361807701816	629.366693368939	941.890073599196	209.320135701538	566.728234526713	817.100304561576	42.986542113214	531.581222430329	986.816192925558	98.041793769655	572.207753866899	898.840337685136	36.746437530360	608.310372119042	1107.125149366299	44.749849663106	601.671340287431	508.615885758481	147.933296052534	391.872221116020	569.339141714234	107.006023845810	312.100586428517	672.434360201131	124.734764311498	332.553235268875	759.013849981538	32.266180134109	306.778545148127	903.994078796137	1091.664574329425	177.087191754692	1122.750632142038	951.443225961502	199.897232483565	780.941535815713	1110.270673164624	768.411455250309	888.779842769885	873.001160827464	765.781309400319	
92	59.216000000000	692.241097116269	1010.054289826528	491.471735394797	882.224805307216	1437.666325065690	317.273892110687	976.067503245185	1364.816631578762	482.484486039188	884.333616036717	1439.499786426603	652.858187109359	874.483999692967	1496.823803075414	468.932812152249	917.053990136069	940.823150251605	610.529359013449	908.236010978275	964.004913061409	336.666779650355	968.463419861197	745.315057465294	582.754524124479	889.609207323572	634.778860432117	638.693581015093	971.682425944851	585.875786579544	560.203861136790	977.304264902310	498.042464542432	565.908420126493	939.116511018586	743.051151141977	359.867987375200	850.072655543890	631.843368055993	292.900934786650	932.674082145455	544.903072235364	351.237426131190	922.559302860799	459.499523202685	348.933713933849	854.527004213563	402.712146158562	343.624608377145	715.301715702427	357.340736487401	294.519686136995	702.700278477216	230.655195978261	354.305425961199	953.972069478557	409.042206079970	571.649242287937	886.992678083820	301.213181934439	630.413643578990	935.697524907086	209.201409515941	567.501342575163	810.492627423839	43.003276412818	531.775612696322	980.301433208628	97.895726603796	572.506203542307	892.215407747852	36.696221412445	608.503032138386	1100.546936613346	44.397072753326	601.907671941947	511.982824367567	161.605701028243	393.178927610002	570.820110889345	118.189061392546	313.110562576305	674.967055639497	130.746292703071	333.542082571294	756.632852161484	32.271695358670	307.061050075124	899.748559106122	1090.955439987724	181.683466411138	1111.687770097260	939.458619740088	202.119454973719	788.037573656188	1110.007803253203	773.332913651342	908.446480509724	879.149330856862	769.207893833143	
